# xmcd
#
# Track frame offsets:
#	150
#	22792
#	42682
#	68952
#	85145
#	103172
#	123935
#	154360
#	174334
#	198662
#	217940
#	238695
#
# Disc length: 3513 seconds
#
# Revision: 0
# Processed by: cddbd v1.5.1PL0 Copyright (c) Steve Scherf et al.
# Submitted via: dBpowerAMP V4.0
#
DISCID=a30db70c
DTITLE=Charles Rio Quartet - Cigars In Jazz
DYEAR=1900
DGENRE=Blues
TTITLE0=Cantaloupe Island
TTITLE1=Mr. Picker's Club
TTITLE2=A Rã
TTITLE3=Let's Call The Whole Thing Off
TTITLE4=Joy Spring
TTITLE5=Água de Beber
TTITLE6=In Your Own Sweet Way
TTITLE7=Rapaz de Bem
TTITLE8=Lost And Found
TTITLE9=Ouraleza
TTITLE10=Days Of Wine And Roses
TTITLE11=When Tomorrow Comes
EXTD=
EXTT0=
EXTT1=
EXTT2=
EXTT3=
EXTT4=
EXTT5=
EXTT6=
EXTT7=
EXTT8=
EXTT9=
EXTT10=
EXTT11=
PLAYORDER=
